<svg width="25" height="25" viewBox="0 0 25 25" fill="none" xmlns="http://www.w3.org/2000/svg">
<path d="M17.1816 3.90912C17.4443 3.64647 17.7561 3.43813 18.0992 3.29599C18.4424 3.15385 18.8102 3.08069 19.1816 3.08069C19.5531 3.08069 19.9209 3.15385 20.264 3.29599C20.6072 3.43813 20.919 3.64647 21.1816 3.90912C21.4443 4.17176 21.6526 4.48356 21.7948 4.82672C21.9369 5.16988 22.0101 5.53768 22.0101 5.90912C22.0101 6.28055 21.9369 6.64835 21.7948 6.99151C21.6526 7.33467 21.4443 7.64647 21.1816 7.90912L7.68164 21.4091L2.18164 22.9091L3.68164 17.4091L17.1816 3.90912Z" stroke="#3E3E3E" stroke-width="2" stroke-linecap="round" stroke-linejoin="round"/>
</svg>
