<svg width="740" height="195" viewBox="0 0 740 195" fill="none" xmlns="http://www.w3.org/2000/svg">
<path d="M356.629 137.306C353.015 137.306 350.115 136.213 347.93 134.028C345.745 131.759 344.652 128.985 344.652 125.708C344.652 122.346 345.745 119.53 347.93 117.261C350.115 114.992 353.015 113.857 356.629 113.857C360.243 113.857 363.142 114.992 365.328 117.261C367.597 119.53 368.732 122.346 368.732 125.708C368.732 128.985 367.597 131.759 365.328 134.028C363.142 136.213 360.243 137.306 356.629 137.306Z" fill="#FFD063"/>
<path d="M224.152 137.795L251.887 57.488H277.48L303.072 137.795H280.001L275.21 121.91H252.518L247.727 137.795H224.152ZM257.308 104.26H271.68L264.999 81.1891H264.494L257.308 104.26Z" fill="url(#paint0_linear_45_3158)"/>
<path d="M314.425 137.795V77.0288H334.596V137.795H314.425ZM324.511 69.2125C321.149 69.2125 318.417 68.1619 316.316 66.0607C314.215 63.9596 313.164 61.3541 313.164 58.2444C313.164 55.1347 314.215 52.5292 316.316 50.4281C318.417 48.3269 321.149 47.2763 324.511 47.2763C327.957 47.2763 330.688 48.3269 332.705 50.4281C334.806 52.5292 335.857 55.1347 335.857 58.2444C335.857 61.3541 334.806 63.9596 332.705 66.0607C330.688 68.1619 327.957 69.2125 324.511 69.2125Z" fill="url(#paint1_linear_45_3158)"/>
<path d="M427.856 146.493L417.644 136.282V101.991C417.644 98.5448 416.719 95.8973 414.87 94.0483C413.021 92.1992 410.332 91.2747 406.802 91.2747C405.289 91.2747 403.86 91.4428 402.515 91.779C401.171 92.1152 399.994 92.5774 398.985 93.1658V137.795H378.814V83.4584C382.008 80.2646 386.336 77.7012 391.8 75.7681C397.347 73.751 403.356 72.7424 409.828 72.7424C419.157 72.7424 426.133 74.8856 430.755 79.172C435.462 83.3743 437.815 89.0895 437.815 96.3175V126.826L443.488 133.256L427.856 146.493Z" fill="url(#paint2_linear_45_3158)"/>
<path d="M478.314 140.316C471.926 140.316 466.043 139.307 460.664 137.29C455.369 135.273 451.335 133.088 448.562 130.735L454.991 117.245C457.092 118.842 460.076 120.355 463.942 121.784C467.808 123.212 471.758 123.927 475.793 123.927C478.818 123.927 481.046 123.465 482.474 122.54C483.903 121.616 484.618 120.355 484.618 118.758C484.618 117.329 484.071 116.279 482.979 115.606C481.886 114.934 480.247 114.43 478.062 114.093L472.011 113.085C464.867 111.908 459.361 109.681 455.495 106.403C451.629 103.041 449.696 98.5448 449.696 92.9136C449.696 89.2996 450.579 85.9798 452.344 82.9541C454.193 79.9284 457.008 77.4911 460.79 75.642C464.656 73.793 469.657 72.8685 475.793 72.8685C481.844 72.8685 487.223 73.667 491.93 75.2638C496.72 76.7767 500.292 78.3736 502.646 80.0545L497.477 93.544C496.132 92.6195 494.325 91.821 492.056 91.1487C489.87 90.3922 487.517 89.8039 484.996 89.3837C482.474 88.9634 480.079 88.7533 477.81 88.7533C472.515 88.7533 469.867 90.056 469.867 92.6615C469.867 93.9222 470.372 94.9728 471.38 95.8132C472.389 96.5697 473.523 97.0319 474.784 97.2L482.474 98.4607C490.963 99.8055 496.804 102.117 499.998 105.395C503.192 108.672 504.789 112.833 504.789 117.875C504.789 121.826 503.906 125.524 502.141 128.97C500.376 132.332 497.561 135.063 493.695 137.164C489.828 139.265 484.702 140.316 478.314 140.316Z" fill="url(#paint3_linear_45_3158)"/>
<path d="M547.887 138.677C543.012 138.677 538.684 137.879 534.902 136.282C531.12 134.685 528.136 132.121 525.951 128.591C523.85 125.061 522.799 120.397 522.799 114.598V90.3922H512.335V75.3899H523.303V57.614H543.474V75.3899H560.62V90.5183H543.601V113.967C543.601 117.161 544.357 119.346 545.87 120.523C547.467 121.7 549.358 122.288 551.543 122.288C552.888 122.288 554.358 122.162 555.955 121.91C557.636 121.574 558.939 121.111 559.864 120.523L563.267 135.399C561.166 136.576 558.729 137.416 555.955 137.921C553.266 138.425 550.576 138.677 547.887 138.677Z" fill="url(#paint4_linear_45_3158)"/>
<path d="M605.262 138.551C598.538 138.551 592.57 137.206 587.36 134.517C582.233 131.827 578.199 127.919 575.257 122.792C572.315 117.665 570.844 111.488 570.844 104.26C570.844 94.0903 573.66 86.2739 579.291 80.8109C585.006 75.2638 592.655 72.4903 602.236 72.4903C608.96 72.4903 614.423 73.793 618.625 76.3985C622.911 78.9199 626.063 82.3238 628.08 86.6101C630.097 90.8965 631.106 95.6451 631.106 100.856C631.106 102.705 630.98 104.638 630.728 106.655C630.56 108.588 630.265 110.521 629.845 112.454H590.637C591.058 116.741 592.823 119.64 595.932 121.153C599.126 122.666 602.782 123.423 606.9 123.423C610.346 123.423 613.498 123.044 616.356 122.288C619.213 121.447 621.525 120.355 623.29 119.01L628.711 131.617C626.609 133.382 623.458 134.979 619.255 136.408C615.137 137.837 610.472 138.551 605.262 138.551ZM590.637 99.7214H613.456C613.456 96.3595 612.49 93.544 610.556 91.2747C608.707 88.9214 605.892 87.7448 602.11 87.7448C598.496 87.7448 595.68 88.8374 593.663 91.0226C591.646 93.2078 590.637 96.1074 590.637 99.7214Z" fill="url(#paint5_linear_45_3158)"/>
<path d="M642.404 137.795V77.0288H662.575V137.795H642.404ZM652.49 69.2125C649.128 69.2125 646.396 68.1619 644.295 66.0607C642.194 63.9596 641.143 61.3541 641.143 58.2444C641.143 55.1347 642.194 52.5292 644.295 50.4281C646.396 48.3269 649.128 47.2763 652.49 47.2763C655.935 47.2763 658.667 48.3269 660.684 50.4281C662.785 52.5292 663.836 55.1347 663.836 58.2444C663.836 61.3541 662.785 63.9596 660.684 66.0607C658.667 68.1619 655.935 69.2125 652.49 69.2125Z" fill="url(#paint6_linear_45_3158)"/>
<path d="M724.194 146.493L713.982 136.282V101.991C713.982 98.5448 713.058 95.8973 711.209 94.0483C709.359 92.1992 706.67 91.2747 703.14 91.2747C701.627 91.2747 700.198 91.4428 698.854 91.779C697.509 92.1152 696.332 92.5774 695.324 93.1658V137.795H675.153V83.4584C678.346 80.2646 682.675 77.7012 688.138 75.7681C693.685 73.751 699.694 72.7424 706.166 72.7424C715.495 72.7424 722.471 74.8856 727.093 79.172C731.8 83.3743 734.153 89.0895 734.153 96.3175V126.826L739.826 133.256L724.194 146.493Z" fill="url(#paint7_linear_45_3158)"/>
<path d="M186.659 37.3758C225.442 90.5898 52.9662 211.447 14.3899 163.646C-27.0991 112.236 147.876 -15.8383 186.659 37.3758Z" stroke="#D2D2D2" stroke-width="7.21546"/>
<path d="M89.7635 5.82617C92.4559 -1.94208 103.442 -1.94205 106.135 5.8262L115.92 34.0595C123.309 55.3781 140.064 72.1325 161.382 79.5215L189.615 89.307C197.384 91.9995 197.384 102.986 189.615 105.678L161.382 115.464C140.064 122.853 123.309 139.607 115.92 160.926L106.135 189.159C103.442 196.927 92.4559 196.927 89.7635 189.159L79.9779 160.926C72.589 139.607 55.8345 122.853 34.516 115.464L6.28266 105.678C-1.48559 102.986 -1.48557 91.9995 6.28268 89.307L34.516 79.5214C55.8345 72.1325 72.589 55.378 79.9779 34.0595L89.7635 5.82617Z" fill="url(#paint8_linear_45_3158)"/>
<path d="M31.678 53.2073C31.3294 52.2016 29.9072 52.2016 29.5586 53.2073C28.6021 55.9672 26.4331 58.1362 23.6732 59.0927C22.6675 59.4413 22.6675 60.8635 23.6732 61.2121C26.4331 62.1686 28.6021 64.3376 29.5586 67.0975C29.9072 68.1031 31.3294 68.1031 31.678 67.0975C32.6345 64.3376 34.8035 62.1686 37.5634 61.2121C38.569 60.8635 38.569 59.4413 37.5634 59.0927C34.8035 58.1362 32.6345 55.9672 31.678 53.2073Z" fill="#D22498"/>
<circle cx="159.133" cy="113.044" r="13.529" fill="#D2D2D2"/>
<path d="M16.9481 160.822C15.6968 159.271 13.4254 159.029 11.8749 160.28C10.3243 161.531 10.0817 163.803 11.3331 165.353L16.9481 160.822ZM183.494 38.9419C191.83 50.3796 189.323 66.0821 178.222 83.803C167.233 101.343 148.495 119.623 127.183 134.901C105.878 150.173 82.3168 162.218 61.8807 167.515C41.1322 172.892 25.1491 170.984 16.9481 160.822L11.3331 165.353C22.4202 179.092 42.4626 180.001 63.691 174.499C85.2317 168.916 109.598 156.384 131.387 140.765C153.168 125.151 172.688 106.227 184.336 87.6337C195.871 69.2212 200.381 49.8614 189.325 34.6921L183.494 38.9419Z" fill="#D2D2D2"/>
<circle cx="14.2462" cy="122.788" r="7.21546" fill="#D2D2D2"/>
<defs>
<linearGradient id="paint0_linear_45_3158" x1="688.07" y1="166.653" x2="611.441" y2="-73.5075" gradientUnits="userSpaceOnUse">
<stop stop-color="#5E5E5E"/>
<stop offset="1" stop-color="#3E3E3E"/>
</linearGradient>
<linearGradient id="paint1_linear_45_3158" x1="688.07" y1="166.653" x2="611.441" y2="-73.5075" gradientUnits="userSpaceOnUse">
<stop stop-color="#5E5E5E"/>
<stop offset="1" stop-color="#3E3E3E"/>
</linearGradient>
<linearGradient id="paint2_linear_45_3158" x1="688.07" y1="166.653" x2="611.441" y2="-73.5075" gradientUnits="userSpaceOnUse">
<stop stop-color="#5E5E5E"/>
<stop offset="1" stop-color="#3E3E3E"/>
</linearGradient>
<linearGradient id="paint3_linear_45_3158" x1="688.07" y1="166.653" x2="611.441" y2="-73.5075" gradientUnits="userSpaceOnUse">
<stop stop-color="#5E5E5E"/>
<stop offset="1" stop-color="#3E3E3E"/>
</linearGradient>
<linearGradient id="paint4_linear_45_3158" x1="688.07" y1="166.653" x2="611.441" y2="-73.5075" gradientUnits="userSpaceOnUse">
<stop stop-color="#5E5E5E"/>
<stop offset="1" stop-color="#3E3E3E"/>
</linearGradient>
<linearGradient id="paint5_linear_45_3158" x1="688.07" y1="166.653" x2="611.441" y2="-73.5075" gradientUnits="userSpaceOnUse">
<stop stop-color="#5E5E5E"/>
<stop offset="1" stop-color="#3E3E3E"/>
</linearGradient>
<linearGradient id="paint6_linear_45_3158" x1="688.07" y1="166.653" x2="611.441" y2="-73.5075" gradientUnits="userSpaceOnUse">
<stop stop-color="#5E5E5E"/>
<stop offset="1" stop-color="#3E3E3E"/>
</linearGradient>
<linearGradient id="paint7_linear_45_3158" x1="688.07" y1="166.653" x2="611.441" y2="-73.5075" gradientUnits="userSpaceOnUse">
<stop stop-color="#5E5E5E"/>
<stop offset="1" stop-color="#3E3E3E"/>
</linearGradient>
<linearGradient id="paint8_linear_45_3158" x1="174.968" y1="172.562" x2="29.7043" y2="18.5236" gradientUnits="userSpaceOnUse">
<stop stop-color="#5E5E5E"/>
<stop offset="1" stop-color="#3E3E3E"/>
</linearGradient>
</defs>
</svg>
