<svg width="154" height="42" viewBox="0 0 154 42" fill="none" xmlns="http://www.w3.org/2000/svg">
<path d="M74.1855 29.4809C73.4328 29.4809 72.8288 29.2533 72.3737 28.7982C71.9186 28.3255 71.691 27.7479 71.691 27.0651C71.691 26.3649 71.9186 25.7785 72.3737 25.3058C72.8288 24.8332 73.4328 24.5968 74.1855 24.5968C74.9383 24.5968 75.5422 24.8332 75.9974 25.3058C76.47 25.7785 76.7064 26.3649 76.7064 27.0651C76.7064 27.7479 76.47 28.3255 75.9974 28.7982C75.5422 29.2533 74.9383 29.4809 74.1855 29.4809Z" fill="#FFD063"/>
<path d="M46.5926 29.5826L52.3695 12.8559H57.7L63.0304 29.5826H58.2251L57.2273 26.2741H52.5008L51.5029 29.5826H46.5926ZM53.4986 22.5979H56.4921L55.1004 17.7926H54.9953L53.4986 22.5979Z" fill="url(#paint0_linear_103_187)"/>
<path d="M65.3951 29.5826V16.926H69.5965V29.5826H65.3951ZM67.4958 15.298C66.7956 15.298 66.2267 15.0792 65.789 14.6415C65.3514 14.2039 65.1326 13.6612 65.1326 13.0135C65.1326 12.3658 65.3514 11.8231 65.789 11.3855C66.2267 10.9478 66.7956 10.729 67.4958 10.729C68.2136 10.729 68.7825 10.9478 69.2026 11.3855C69.6403 11.8231 69.8591 12.3658 69.8591 13.0135C69.8591 13.6612 69.6403 14.2039 69.2026 14.6415C68.7825 15.0792 68.2136 15.298 67.4958 15.298Z" fill="url(#paint1_linear_103_187)"/>
<path d="M89.021 31.3945L86.8941 29.2675V22.1252C86.8941 21.4075 86.7015 20.856 86.3164 20.4709C85.9313 20.0858 85.3711 19.8932 84.6359 19.8932C84.3208 19.8932 84.0232 19.9282 83.7431 19.9983C83.463 20.0683 83.2179 20.1646 83.0078 20.2871V29.5826H78.8065V18.2652C79.4717 17.6 80.3732 17.0661 81.5111 16.6634C82.6665 16.2433 83.9181 16.0332 85.2661 16.0332C87.2092 16.0332 88.6622 16.4796 89.625 17.3724C90.6053 18.2477 91.0955 19.4381 91.0955 20.9436V27.2981L92.2771 28.6373L89.021 31.3945Z" fill="url(#paint2_linear_103_187)"/>
<path d="M99.5308 30.1078C98.2004 30.1078 96.975 29.8977 95.8546 29.4776C94.7518 29.0575 93.9115 28.6023 93.3338 28.1122L94.673 25.3025C95.1106 25.6351 95.7321 25.9502 96.5374 26.2478C97.3426 26.5454 98.1654 26.6942 99.0057 26.6942C99.6359 26.6942 100.1 26.5979 100.397 26.4054C100.695 26.2128 100.844 25.9502 100.844 25.6176C100.844 25.32 100.73 25.1012 100.502 24.9611C100.275 24.8211 99.9335 24.7161 99.4783 24.646L98.2179 24.436C96.7299 24.1909 95.5833 23.727 94.778 23.0443C93.9728 22.344 93.5701 21.4075 93.5701 20.2346C93.5701 19.4819 93.7539 18.7904 94.1216 18.1602C94.5067 17.53 95.0931 17.0223 95.8809 16.6372C96.6861 16.252 97.7277 16.0595 99.0057 16.0595C100.266 16.0595 101.386 16.2258 102.367 16.5584C103.365 16.8735 104.109 17.2061 104.599 17.5562L103.522 20.3659C103.242 20.1733 102.866 20.007 102.393 19.867C101.938 19.7094 101.448 19.5869 100.923 19.4994C100.397 19.4118 99.8984 19.3681 99.4258 19.3681C98.3229 19.3681 97.7715 19.6394 97.7715 20.1821C97.7715 20.4447 97.8765 20.6635 98.0866 20.8385C98.2967 20.9961 98.533 21.0924 98.7956 21.1274L100.397 21.39C102.165 21.6701 103.382 22.1515 104.047 22.8342C104.713 23.5169 105.045 24.3834 105.045 25.4338C105.045 26.2566 104.861 27.0268 104.494 27.7445C104.126 28.4448 103.54 29.0137 102.734 29.4513C101.929 29.889 100.861 30.1078 99.5308 30.1078Z" fill="url(#paint3_linear_103_187)"/>
<path d="M114.022 29.7664C113.007 29.7664 112.105 29.6001 111.317 29.2675C110.529 28.9349 109.908 28.401 109.453 27.6658C109.015 26.9305 108.796 25.959 108.796 24.7511V19.7094H106.617V16.5847H108.901V12.8822H113.103V16.5847H116.674V19.7357H113.129V24.6198C113.129 25.285 113.287 25.7401 113.602 25.9852C113.934 26.2303 114.328 26.3528 114.783 26.3528C115.063 26.3528 115.37 26.3266 115.702 26.2741C116.052 26.204 116.324 26.1078 116.516 25.9852L117.225 29.0837C116.788 29.3288 116.28 29.5039 115.702 29.6089C115.142 29.7139 114.582 29.7664 114.022 29.7664Z" fill="url(#paint4_linear_103_187)"/>
<path d="M125.972 29.7402C124.572 29.7402 123.329 29.4601 122.243 28.8999C121.176 28.3397 120.335 27.5257 119.723 26.4579C119.11 25.39 118.804 24.1034 118.804 22.5979C118.804 20.4797 119.39 18.8516 120.563 17.7138C121.753 16.5584 123.346 15.9807 125.342 15.9807C126.742 15.9807 127.88 16.2521 128.756 16.7947C129.648 17.3199 130.305 18.0289 130.725 18.9217C131.145 19.8145 131.355 20.8035 131.355 21.8889C131.355 22.274 131.329 22.6766 131.276 23.0968C131.241 23.4994 131.18 23.902 131.093 24.3047H122.926C123.014 25.1975 123.381 25.8014 124.029 26.1165C124.694 26.4316 125.456 26.5892 126.314 26.5892C127.031 26.5892 127.688 26.5104 128.283 26.3528C128.878 26.1778 129.359 25.9502 129.727 25.6701L130.856 28.296C130.419 28.6636 129.762 28.9962 128.887 29.2938C128.029 29.5914 127.057 29.7402 125.972 29.7402ZM122.926 21.6526H127.679C127.679 20.9523 127.478 20.3659 127.075 19.8932C126.69 19.4031 126.103 19.158 125.316 19.158C124.563 19.158 123.976 19.3856 123.556 19.8407C123.136 20.2959 122.926 20.8998 122.926 21.6526Z" fill="url(#paint5_linear_103_187)"/>
<path d="M133.708 29.5826V16.926H137.91V29.5826H133.708ZM135.809 15.298C135.109 15.298 134.54 15.0792 134.102 14.6415C133.665 14.2039 133.446 13.6612 133.446 13.0135C133.446 12.3658 133.665 11.8231 134.102 11.3855C134.54 10.9478 135.109 10.729 135.809 10.729C136.527 10.729 137.096 10.9478 137.516 11.3855C137.953 11.8231 138.172 12.3658 138.172 13.0135C138.172 13.6612 137.953 14.2039 137.516 14.6415C137.096 15.0792 136.527 15.298 135.809 15.298Z" fill="url(#paint6_linear_103_187)"/>
<path d="M150.744 31.3945L148.617 29.2675V22.1252C148.617 21.4075 148.424 20.856 148.039 20.4709C147.654 20.0858 147.094 19.8932 146.359 19.8932C146.044 19.8932 145.746 19.9282 145.466 19.9983C145.186 20.0683 144.941 20.1646 144.731 20.2871V29.5826H140.529V18.2652C141.195 17.6 142.096 17.0661 143.234 16.6634C144.389 16.2433 145.641 16.0332 146.989 16.0332C148.932 16.0332 150.385 16.4796 151.348 17.3724C152.328 18.2477 152.818 19.4381 152.818 20.9436V27.2981L154 28.6373L150.744 31.3945Z" fill="url(#paint7_linear_103_187)"/>
<path d="M38.7833 8.6669C46.8612 19.7506 10.937 44.9234 2.90214 34.9672C-5.73943 24.2592 30.7053 -2.41681 38.7833 8.6669Z" stroke="#D2D2D2" stroke-width="1.50287"/>
<path d="M18.6014 2.09559C19.1622 0.477574 21.4504 0.47758 22.0112 2.09559L24.0494 7.97618C25.5884 12.4165 29.0781 15.9062 33.5185 17.4452L39.3991 19.4834C41.0171 20.0442 41.0171 22.3325 39.399 22.8933L33.5185 24.9315C29.0781 26.4705 25.5884 29.9602 24.0494 34.4005L22.0112 40.2811C21.4504 41.8991 19.1621 41.8991 18.6014 40.2811L16.5632 34.4005C15.0242 29.9602 11.5344 26.4705 7.0941 24.9315L1.21351 22.8933C-0.404506 22.3325 -0.404501 20.0442 1.21351 19.4834L7.0941 17.4452C11.5344 15.9062 15.0242 12.4165 16.5632 7.97618L18.6014 2.09559Z" fill="url(#paint8_linear_103_187)"/>
<path d="M6.503 11.9644C6.43041 11.7549 6.13417 11.7549 6.06157 11.9644V11.9644C5.86234 12.5392 5.41056 12.991 4.83573 13.1902V13.1902C4.62626 13.2628 4.62626 13.559 4.83573 13.6316V13.6316C5.41056 13.8309 5.86234 14.2826 6.06157 14.8575V14.8575C6.13417 15.0669 6.43041 15.0669 6.503 14.8575V14.8575C6.70224 14.2826 7.15401 13.8309 7.72885 13.6316V13.6316C7.93831 13.559 7.93831 13.2628 7.72885 13.1902V13.1902C7.15401 12.991 6.70224 12.5392 6.503 11.9644V11.9644Z" fill="#D22498"/>
<circle cx="33.0499" cy="24.4275" r="2.81789" fill="#D2D2D2"/>
<path d="M3.43499 34.3789C3.17435 34.0559 2.70126 34.0054 2.3783 34.2661C2.05534 34.5267 2.00482 34.9998 2.26545 35.3227L3.43499 34.3789ZM38.1241 8.99309C39.8603 11.3754 39.3383 14.646 37.0259 18.337C34.7372 21.9903 30.8343 25.7978 26.3953 28.9799C21.9578 32.1609 17.0503 34.6697 12.7938 35.7729C8.47218 36.893 5.14313 36.4955 3.43499 34.3789L2.26545 35.3227C4.57474 38.1842 8.74929 38.3737 13.1708 37.2277C17.6575 36.0649 22.7327 33.4545 27.2709 30.2014C31.8075 26.9493 35.8733 23.0077 38.2995 19.1349C40.7021 15.2998 41.6413 11.2675 39.3386 8.10792L38.1241 8.99309Z" fill="#D2D2D2"/>
<circle cx="2.87214" cy="26.4571" r="1.50287" fill="#D2D2D2"/>
<defs>
<linearGradient id="paint0_linear_103_187" x1="143.22" y1="35.5934" x2="127.259" y2="-14.4285" gradientUnits="userSpaceOnUse">
<stop stop-color="#5E5E5E"/>
<stop offset="1" stop-color="#3E3E3E"/>
</linearGradient>
<linearGradient id="paint1_linear_103_187" x1="143.22" y1="35.5934" x2="127.259" y2="-14.4285" gradientUnits="userSpaceOnUse">
<stop stop-color="#5E5E5E"/>
<stop offset="1" stop-color="#3E3E3E"/>
</linearGradient>
<linearGradient id="paint2_linear_103_187" x1="143.22" y1="35.5934" x2="127.259" y2="-14.4285" gradientUnits="userSpaceOnUse">
<stop stop-color="#5E5E5E"/>
<stop offset="1" stop-color="#3E3E3E"/>
</linearGradient>
<linearGradient id="paint3_linear_103_187" x1="143.22" y1="35.5934" x2="127.259" y2="-14.4285" gradientUnits="userSpaceOnUse">
<stop stop-color="#5E5E5E"/>
<stop offset="1" stop-color="#3E3E3E"/>
</linearGradient>
<linearGradient id="paint4_linear_103_187" x1="143.22" y1="35.5934" x2="127.259" y2="-14.4285" gradientUnits="userSpaceOnUse">
<stop stop-color="#5E5E5E"/>
<stop offset="1" stop-color="#3E3E3E"/>
</linearGradient>
<linearGradient id="paint5_linear_103_187" x1="143.22" y1="35.5934" x2="127.259" y2="-14.4285" gradientUnits="userSpaceOnUse">
<stop stop-color="#5E5E5E"/>
<stop offset="1" stop-color="#3E3E3E"/>
</linearGradient>
<linearGradient id="paint6_linear_103_187" x1="143.22" y1="35.5934" x2="127.259" y2="-14.4285" gradientUnits="userSpaceOnUse">
<stop stop-color="#5E5E5E"/>
<stop offset="1" stop-color="#3E3E3E"/>
</linearGradient>
<linearGradient id="paint7_linear_103_187" x1="143.22" y1="35.5934" x2="127.259" y2="-14.4285" gradientUnits="userSpaceOnUse">
<stop stop-color="#5E5E5E"/>
<stop offset="1" stop-color="#3E3E3E"/>
</linearGradient>
<linearGradient id="paint8_linear_103_187" x1="36.3482" y1="36.8242" x2="6.09189" y2="4.74028" gradientUnits="userSpaceOnUse">
<stop stop-color="#5E5E5E"/>
<stop offset="1" stop-color="#3E3E3E"/>
</linearGradient>
</defs>
</svg>
