<svg width="148" height="148" viewBox="0 0 148 148" fill="none" xmlns="http://www.w3.org/2000/svg">
<path d="M4.4546 0.383589C4.27733 -0.127863 3.55401 -0.127863 3.37674 0.383588C2.89027 1.78717 1.78717 2.89027 0.383589 3.37674C-0.127863 3.55401 -0.127863 4.27733 0.383588 4.4546C1.78717 4.94107 2.89027 6.04417 3.37674 7.44775C3.55401 7.9592 4.27733 7.9592 4.4546 7.44775C4.94107 6.04417 6.04417 4.94107 7.44775 4.4546C7.9592 4.27733 7.9592 3.55401 7.44775 3.37674C6.04417 2.89027 4.94107 1.78717 4.4546 0.383589Z" fill="#5E5E5E" fill-opacity="0.4"/>
<path d="M32.4883 0.383589C32.311 -0.127863 31.5877 -0.127863 31.4104 0.383588C30.924 1.78717 29.8209 2.89027 28.4173 3.37674C27.9058 3.55401 27.9058 4.27733 28.4173 4.4546C29.8209 4.94107 30.924 6.04417 31.4104 7.44775C31.5877 7.9592 32.311 7.9592 32.4883 7.44775C32.9748 6.04417 34.0779 4.94107 35.4814 4.4546C35.9929 4.27733 35.9929 3.55401 35.4814 3.37674C34.0779 2.89027 32.9748 1.78717 32.4883 0.383589Z" fill="#5E5E5E" fill-opacity="0.4"/>
<path d="M60.5217 0.383589C60.3445 -0.127863 59.6211 -0.127863 59.4439 0.383588C58.9574 1.78717 57.8543 2.89027 56.4507 3.37674C55.9393 3.55401 55.9393 4.27733 56.4507 4.4546C57.8543 4.94107 58.9574 6.04417 59.4439 7.44775C59.6211 7.9592 60.3445 7.9592 60.5217 7.44775C61.0082 6.04417 62.1113 4.94107 63.5149 4.4546C64.0263 4.27733 64.0263 3.55401 63.5149 3.37674C62.1113 2.89027 61.0082 1.78717 60.5217 0.383589Z" fill="#5E5E5E" fill-opacity="0.4"/>
<path d="M88.5554 0.383589C88.3782 -0.127863 87.6548 -0.127863 87.4776 0.383588C86.9911 1.78717 85.888 2.89027 84.4844 3.37674C83.973 3.55401 83.973 4.27733 84.4844 4.4546C85.888 4.94107 86.9911 6.04417 87.4776 7.44775C87.6548 7.9592 88.3782 7.9592 88.5554 7.44775C89.0419 6.04417 90.145 4.94107 91.5486 4.4546C92.06 4.27733 92.06 3.55401 91.5486 3.37674C90.145 2.89027 89.0419 1.78717 88.5554 0.383589Z" fill="#5E5E5E" fill-opacity="0.4"/>
<path d="M116.589 0.383589C116.412 -0.127863 115.689 -0.127863 115.512 0.383588C115.025 1.78717 113.922 2.89027 112.518 3.37674C112.007 3.55401 112.007 4.27733 112.518 4.4546C113.922 4.94107 115.025 6.04417 115.512 7.44775C115.689 7.9592 116.412 7.9592 116.589 7.44775C117.076 6.04417 118.179 4.94107 119.583 4.4546C120.094 4.27733 120.094 3.55401 119.583 3.37674C118.179 2.89027 117.076 1.78717 116.589 0.383589Z" fill="#5E5E5E" fill-opacity="0.4"/>
<path d="M144.623 0.383589C144.446 -0.127863 143.722 -0.127863 143.545 0.383588C143.058 1.78717 141.955 2.89027 140.552 3.37674C140.04 3.55401 140.04 4.27733 140.552 4.4546C141.955 4.94107 143.058 6.04417 143.545 7.44775C143.722 7.9592 144.446 7.9592 144.623 7.44775C145.109 6.04417 146.212 4.94107 147.616 4.4546C148.127 4.27733 148.127 3.55401 147.616 3.37674C146.212 2.89027 145.109 1.78717 144.623 0.383589Z" fill="#5E5E5E" fill-opacity="0.4"/>
<path d="M4.4546 28.4161C4.27733 27.9046 3.55401 27.9046 3.37674 28.4161C2.89027 29.8196 1.78717 30.9227 0.383589 31.4092C-0.127863 31.5865 -0.127863 32.3098 0.383588 32.4871C1.78717 32.9735 2.89027 34.0766 3.37674 35.4802C3.55401 35.9917 4.27733 35.9917 4.4546 35.4802C4.94107 34.0766 6.04417 32.9735 7.44775 32.4871C7.9592 32.3098 7.9592 31.5865 7.44775 31.4092C6.04417 30.9227 4.94107 29.8196 4.4546 28.4161Z" fill="#5E5E5E" fill-opacity="0.4"/>
<path d="M32.4883 28.4161C32.311 27.9046 31.5877 27.9046 31.4104 28.4161C30.924 29.8196 29.8209 30.9227 28.4173 31.4092C27.9058 31.5865 27.9058 32.3098 28.4173 32.4871C29.8209 32.9735 30.924 34.0766 31.4104 35.4802C31.5877 35.9917 32.311 35.9917 32.4883 35.4802C32.9748 34.0766 34.0779 32.9735 35.4814 32.4871C35.9929 32.3098 35.9929 31.5865 35.4814 31.4092C34.0779 30.9227 32.9748 29.8196 32.4883 28.4161Z" fill="#5E5E5E" fill-opacity="0.4"/>
<path d="M60.5217 28.4161C60.3445 27.9046 59.6211 27.9046 59.4439 28.4161C58.9574 29.8196 57.8543 30.9227 56.4507 31.4092C55.9393 31.5865 55.9393 32.3098 56.4507 32.4871C57.8543 32.9735 58.9574 34.0766 59.4439 35.4802C59.6211 35.9917 60.3445 35.9917 60.5217 35.4802C61.0082 34.0766 62.1113 32.9735 63.5149 32.4871C64.0263 32.3098 64.0263 31.5865 63.5149 31.4092C62.1113 30.9227 61.0082 29.8196 60.5217 28.4161Z" fill="#5E5E5E" fill-opacity="0.4"/>
<path d="M88.5554 28.4161C88.3782 27.9046 87.6548 27.9046 87.4776 28.4161C86.9911 29.8196 85.888 30.9227 84.4844 31.4092C83.973 31.5865 83.973 32.3098 84.4844 32.4871C85.888 32.9735 86.9911 34.0766 87.4776 35.4802C87.6548 35.9917 88.3782 35.9917 88.5554 35.4802C89.0419 34.0766 90.145 32.9735 91.5486 32.4871C92.06 32.3098 92.06 31.5865 91.5486 31.4092C90.145 30.9227 89.0419 29.8196 88.5554 28.4161Z" fill="#5E5E5E" fill-opacity="0.4"/>
<path d="M116.589 28.4161C116.412 27.9046 115.689 27.9046 115.512 28.4161C115.025 29.8196 113.922 30.9227 112.518 31.4092C112.007 31.5865 112.007 32.3098 112.518 32.4871C113.922 32.9735 115.025 34.0766 115.512 35.4802C115.689 35.9917 116.412 35.9917 116.589 35.4802C117.076 34.0766 118.179 32.9735 119.583 32.4871C120.094 32.3098 120.094 31.5865 119.583 31.4092C118.179 30.9227 117.076 29.8196 116.589 28.4161Z" fill="#5E5E5E" fill-opacity="0.4"/>
<path d="M144.623 28.4161C144.446 27.9046 143.722 27.9046 143.545 28.4161C143.058 29.8196 141.955 30.9227 140.552 31.4092C140.04 31.5865 140.04 32.3098 140.552 32.4871C141.955 32.9735 143.058 34.0766 143.545 35.4802C143.722 35.9917 144.446 35.9917 144.623 35.4802C145.109 34.0766 146.212 32.9735 147.616 32.4871C148.127 32.3098 148.127 31.5865 147.616 31.4092C146.212 30.9227 145.109 29.8196 144.623 28.4161Z" fill="#5E5E5E" fill-opacity="0.4"/>
<path d="M4.4546 56.4485C4.27733 55.9371 3.55401 55.9371 3.37674 56.4485C2.89027 57.8521 1.78717 58.9552 0.383589 59.4417C-0.127863 59.619 -0.127863 60.3423 0.383588 60.5195C1.78717 61.006 2.89027 62.1091 3.37674 63.5127C3.55401 64.0241 4.27733 64.0241 4.4546 63.5127C4.94107 62.1091 6.04417 61.006 7.44775 60.5195C7.9592 60.3423 7.9592 59.619 7.44775 59.4417C6.04417 58.9552 4.94107 57.8521 4.4546 56.4485Z" fill="#5E5E5E" fill-opacity="0.4"/>
<path d="M32.4883 56.4485C32.311 55.9371 31.5877 55.9371 31.4104 56.4485C30.924 57.8521 29.8209 58.9552 28.4173 59.4417C27.9058 59.619 27.9058 60.3423 28.4173 60.5195C29.8209 61.006 30.924 62.1091 31.4104 63.5127C31.5877 64.0241 32.311 64.0241 32.4883 63.5127C32.9748 62.1091 34.0779 61.006 35.4814 60.5195C35.9929 60.3423 35.9929 59.619 35.4814 59.4417C34.0779 58.9552 32.9748 57.8521 32.4883 56.4485Z" fill="#5E5E5E" fill-opacity="0.4"/>
<path d="M60.5217 56.4485C60.3445 55.9371 59.6211 55.9371 59.4439 56.4485C58.9574 57.8521 57.8543 58.9552 56.4507 59.4417C55.9393 59.619 55.9393 60.3423 56.4507 60.5195C57.8543 61.006 58.9574 62.1091 59.4439 63.5127C59.6211 64.0241 60.3445 64.0241 60.5217 63.5127C61.0082 62.1091 62.1113 61.006 63.5149 60.5195C64.0263 60.3423 64.0263 59.619 63.5149 59.4417C62.1113 58.9552 61.0082 57.8521 60.5217 56.4485Z" fill="#5E5E5E" fill-opacity="0.4"/>
<path d="M88.5554 56.4485C88.3782 55.9371 87.6548 55.9371 87.4776 56.4485C86.9911 57.8521 85.888 58.9552 84.4844 59.4417C83.973 59.619 83.973 60.3423 84.4844 60.5195C85.888 61.006 86.9911 62.1091 87.4776 63.5127C87.6548 64.0241 88.3782 64.0241 88.5554 63.5127C89.0419 62.1091 90.145 61.006 91.5486 60.5195C92.06 60.3423 92.06 59.619 91.5486 59.4417C90.145 58.9552 89.0419 57.8521 88.5554 56.4485Z" fill="#5E5E5E" fill-opacity="0.4"/>
<path d="M116.589 56.4485C116.412 55.9371 115.689 55.9371 115.512 56.4485C115.025 57.8521 113.922 58.9552 112.518 59.4417C112.007 59.619 112.007 60.3423 112.518 60.5195C113.922 61.006 115.025 62.1091 115.512 63.5127C115.689 64.0241 116.412 64.0241 116.589 63.5127C117.076 62.1091 118.179 61.006 119.583 60.5195C120.094 60.3423 120.094 59.619 119.583 59.4417C118.179 58.9552 117.076 57.8521 116.589 56.4485Z" fill="#5E5E5E" fill-opacity="0.4"/>
<path d="M144.623 56.4485C144.446 55.9371 143.722 55.9371 143.545 56.4485C143.058 57.8521 141.955 58.9552 140.552 59.4417C140.04 59.619 140.04 60.3423 140.552 60.5195C141.955 61.006 143.058 62.1091 143.545 63.5127C143.722 64.0241 144.446 64.0241 144.623 63.5127C145.109 62.1091 146.212 61.006 147.616 60.5195C148.127 60.3423 148.127 59.619 147.616 59.4417C146.212 58.9552 145.109 57.8521 144.623 56.4485Z" fill="#5E5E5E" fill-opacity="0.4"/>
<path d="M4.4546 84.481C4.27733 83.9695 3.55401 83.9695 3.37674 84.481C2.89027 85.8846 1.78717 86.9877 0.383589 87.4742C-0.127863 87.6514 -0.127863 88.3747 0.383588 88.552C1.78717 89.0385 2.89027 90.1416 3.37674 91.5452C3.55401 92.0566 4.27733 92.0566 4.4546 91.5452C4.94107 90.1416 6.04417 89.0385 7.44775 88.552C7.9592 88.3747 7.9592 87.6514 7.44775 87.4742C6.04417 86.9877 4.94107 85.8846 4.4546 84.481Z" fill="#5E5E5E" fill-opacity="0.4"/>
<path d="M32.4883 84.481C32.311 83.9695 31.5877 83.9695 31.4104 84.481C30.924 85.8846 29.8209 86.9877 28.4173 87.4742C27.9058 87.6514 27.9058 88.3747 28.4173 88.552C29.8209 89.0385 30.924 90.1416 31.4104 91.5452C31.5877 92.0566 32.311 92.0566 32.4883 91.5452C32.9748 90.1416 34.0779 89.0385 35.4814 88.552C35.9929 88.3747 35.9929 87.6514 35.4814 87.4742C34.0779 86.9877 32.9748 85.8846 32.4883 84.481Z" fill="#5E5E5E" fill-opacity="0.4"/>
<path d="M60.5217 84.481C60.3445 83.9695 59.6211 83.9695 59.4439 84.481C58.9574 85.8846 57.8543 86.9877 56.4507 87.4742C55.9393 87.6514 55.9393 88.3747 56.4507 88.552C57.8543 89.0385 58.9574 90.1416 59.4439 91.5452C59.6211 92.0566 60.3445 92.0566 60.5217 91.5452C61.0082 90.1416 62.1113 89.0385 63.5149 88.552C64.0263 88.3747 64.0263 87.6514 63.5149 87.4742C62.1113 86.9877 61.0082 85.8846 60.5217 84.481Z" fill="#5E5E5E" fill-opacity="0.4"/>
<path d="M88.5554 84.481C88.3782 83.9695 87.6548 83.9695 87.4776 84.481C86.9911 85.8846 85.888 86.9877 84.4844 87.4742C83.973 87.6514 83.973 88.3747 84.4844 88.552C85.888 89.0385 86.9911 90.1416 87.4776 91.5452C87.6548 92.0566 88.3782 92.0566 88.5554 91.5452C89.0419 90.1416 90.145 89.0385 91.5486 88.552C92.06 88.3747 92.06 87.6514 91.5486 87.4742C90.145 86.9877 89.0419 85.8846 88.5554 84.481Z" fill="#5E5E5E" fill-opacity="0.4"/>
<path d="M116.589 84.481C116.412 83.9695 115.689 83.9695 115.512 84.481C115.025 85.8846 113.922 86.9877 112.518 87.4742C112.007 87.6514 112.007 88.3747 112.518 88.552C113.922 89.0385 115.025 90.1416 115.512 91.5452C115.689 92.0566 116.412 92.0566 116.589 91.5452C117.076 90.1416 118.179 89.0385 119.583 88.552C120.094 88.3747 120.094 87.6514 119.583 87.4742C118.179 86.9877 117.076 85.8846 116.589 84.481Z" fill="#5E5E5E" fill-opacity="0.4"/>
<path d="M144.623 84.481C144.446 83.9695 143.722 83.9695 143.545 84.481C143.058 85.8846 141.955 86.9877 140.552 87.4742C140.04 87.6514 140.04 88.3747 140.552 88.552C141.955 89.0385 143.058 90.1416 143.545 91.5452C143.722 92.0566 144.446 92.0566 144.623 91.5452C145.109 90.1416 146.212 89.0385 147.616 88.552C148.127 88.3747 148.127 87.6514 147.616 87.4742C146.212 86.9877 145.109 85.8846 144.623 84.481Z" fill="#5E5E5E" fill-opacity="0.4"/>
<path d="M4.4546 112.514C4.27733 112.002 3.55401 112.002 3.37674 112.514C2.89027 113.917 1.78717 115.02 0.383589 115.507C-0.127863 115.684 -0.127863 116.407 0.383588 116.585C1.78717 117.071 2.89027 118.174 3.37674 119.578C3.55401 120.089 4.27733 120.089 4.4546 119.578C4.94107 118.174 6.04417 117.071 7.44775 116.585C7.9592 116.407 7.9592 115.684 7.44775 115.507C6.04417 115.02 4.94107 113.917 4.4546 112.514Z" fill="#5E5E5E" fill-opacity="0.4"/>
<path d="M32.4883 112.52C32.311 112.008 31.5877 112.008 31.4104 112.52C30.924 113.923 29.8209 115.026 28.4173 115.513C27.9058 115.69 27.9058 116.414 28.4173 116.591C29.8209 117.077 30.924 118.18 31.4104 119.584C31.5877 120.095 32.311 120.095 32.4883 119.584C32.9748 118.18 34.0779 117.077 35.4814 116.591C35.9929 116.414 35.9929 115.69 35.4814 115.513C34.0779 115.026 32.9748 113.923 32.4883 112.52Z" fill="#5E5E5E" fill-opacity="0.4"/>
<path d="M60.5217 112.52C60.3445 112.008 59.6211 112.008 59.4439 112.52C58.9574 113.923 57.8543 115.026 56.4507 115.513C55.9393 115.69 55.9393 116.414 56.4507 116.591C57.8543 117.077 58.9574 118.18 59.4439 119.584C59.6211 120.095 60.3445 120.095 60.5217 119.584C61.0082 118.18 62.1113 117.077 63.5149 116.591C64.0263 116.414 64.0263 115.69 63.5149 115.513C62.1113 115.026 61.0082 113.923 60.5217 112.52Z" fill="#5E5E5E" fill-opacity="0.4"/>
<path d="M88.5554 112.52C88.3782 112.008 87.6548 112.008 87.4776 112.52C86.9911 113.923 85.888 115.026 84.4844 115.513C83.973 115.69 83.973 116.414 84.4844 116.591C85.888 117.077 86.9911 118.18 87.4776 119.584C87.6548 120.095 88.3782 120.095 88.5554 119.584C89.0419 118.18 90.145 117.077 91.5486 116.591C92.06 116.414 92.06 115.69 91.5486 115.513C90.145 115.026 89.0419 113.923 88.5554 112.52Z" fill="#5E5E5E" fill-opacity="0.4"/>
<path d="M116.589 112.52C116.412 112.008 115.689 112.008 115.512 112.52C115.025 113.923 113.922 115.026 112.518 115.513C112.007 115.69 112.007 116.414 112.518 116.591C113.922 117.077 115.025 118.18 115.512 119.584C115.689 120.095 116.412 120.095 116.589 119.584C117.076 118.18 118.179 117.077 119.583 116.591C120.094 116.414 120.094 115.69 119.583 115.513C118.179 115.026 117.076 113.923 116.589 112.52Z" fill="#5E5E5E" fill-opacity="0.4"/>
<path d="M144.623 112.52C144.446 112.008 143.722 112.008 143.545 112.52C143.058 113.923 141.955 115.026 140.552 115.513C140.04 115.69 140.04 116.414 140.552 116.591C141.955 117.077 143.058 118.18 143.545 119.584C143.722 120.095 144.446 120.095 144.623 119.584C145.109 118.18 146.212 117.077 147.616 116.591C148.127 116.414 148.127 115.69 147.616 115.513C146.212 115.026 145.109 113.923 144.623 112.52Z" fill="#5E5E5E" fill-opacity="0.4"/>
<path d="M4.4546 140.552C4.27733 140.041 3.55401 140.041 3.37674 140.552C2.89027 141.956 1.78717 143.059 0.383589 143.545C-0.127863 143.723 -0.127863 144.446 0.383588 144.623C1.78717 145.11 2.89027 146.213 3.37674 147.616C3.55401 148.128 4.27733 148.128 4.4546 147.616C4.94107 146.213 6.04417 145.11 7.44775 144.623C7.9592 144.446 7.9592 143.723 7.44775 143.545C6.04417 143.059 4.94107 141.956 4.4546 140.552Z" fill="#5E5E5E" fill-opacity="0.4"/>
<path d="M32.4883 140.553C32.311 140.041 31.5877 140.041 31.4104 140.553C30.924 141.956 29.8209 143.059 28.4173 143.546C27.9058 143.723 27.9058 144.446 28.4173 144.624C29.8209 145.11 30.924 146.213 31.4104 147.617C31.5877 148.128 32.311 148.128 32.4883 147.617C32.9748 146.213 34.0779 145.11 35.4814 144.624C35.9929 144.446 35.9929 143.723 35.4814 143.546C34.0779 143.059 32.9748 141.956 32.4883 140.553Z" fill="#5E5E5E" fill-opacity="0.4"/>
<path d="M60.5217 140.553C60.3445 140.041 59.6211 140.041 59.4439 140.553C58.9574 141.956 57.8543 143.059 56.4507 143.546C55.9393 143.723 55.9393 144.446 56.4507 144.624C57.8543 145.11 58.9574 146.213 59.4439 147.617C59.6211 148.128 60.3445 148.128 60.5217 147.617C61.0082 146.213 62.1113 145.11 63.5149 144.624C64.0263 144.446 64.0263 143.723 63.5149 143.546C62.1113 143.059 61.0082 141.956 60.5217 140.553Z" fill="#5E5E5E" fill-opacity="0.4"/>
<path d="M88.5554 140.553C88.3782 140.041 87.6548 140.041 87.4776 140.553C86.9911 141.956 85.888 143.059 84.4844 143.546C83.973 143.723 83.973 144.446 84.4844 144.624C85.888 145.11 86.9911 146.213 87.4776 147.617C87.6548 148.128 88.3782 148.128 88.5554 147.617C89.0419 146.213 90.145 145.11 91.5486 144.624C92.06 144.446 92.06 143.723 91.5486 143.546C90.145 143.059 89.0419 141.956 88.5554 140.553Z" fill="#5E5E5E" fill-opacity="0.4"/>
<path d="M116.589 140.553C116.412 140.041 115.689 140.041 115.512 140.553C115.025 141.956 113.922 143.059 112.518 143.546C112.007 143.723 112.007 144.446 112.518 144.624C113.922 145.11 115.025 146.213 115.512 147.617C115.689 148.128 116.412 148.128 116.589 147.617C117.076 146.213 118.179 145.11 119.583 144.624C120.094 144.446 120.094 143.723 119.583 143.546C118.179 143.059 117.076 141.956 116.589 140.553Z" fill="#5E5E5E" fill-opacity="0.4"/>
<path d="M144.623 140.553C144.446 140.041 143.722 140.041 143.545 140.553C143.058 141.956 141.955 143.059 140.552 143.546C140.04 143.723 140.04 144.446 140.552 144.624C141.955 145.11 143.058 146.213 143.545 147.617C143.722 148.128 144.446 148.128 144.623 147.617C145.109 146.213 146.212 145.11 147.616 144.624C148.127 144.446 148.127 143.723 147.616 143.546C146.212 143.059 145.109 141.956 144.623 140.553Z" fill="#5E5E5E" fill-opacity="0.4"/>
</svg>
