<svg width="243" height="240" viewBox="0 0 243 240" fill="none" xmlns="http://www.w3.org/2000/svg">
<g clip-path="url(#clip0_81_395)">
<path opacity="0.04" d="M205 0H10C4.47715 0 0 4.47715 0 10V206C0 211.523 4.47715 216 10 216H205C210.523 216 215 211.523 215 206V10C215 4.47715 210.523 0 205 0Z" fill="#D22498"/>
<path opacity="0.48" d="M232.5 100.5H114.5C108.977 100.5 104.5 104.977 104.5 110.5V229.5C104.5 235.023 108.977 239.5 114.5 239.5H232.5C238.023 239.5 242.5 235.023 242.5 229.5V110.5C242.5 104.977 238.023 100.5 232.5 100.5Z" stroke="#22303E" stroke-opacity="0.12"/>
<path d="M37.4546 37.3836C37.2773 36.8721 36.554 36.8721 36.3767 37.3836C35.8903 38.7872 34.7872 39.8903 33.3836 40.3767C32.8721 40.554 32.8721 41.2773 33.3836 41.4546C34.7872 41.9411 35.8903 43.0442 36.3767 44.4478C36.554 44.9592 37.2773 44.9592 37.4546 44.4478C37.9411 43.0442 39.0442 41.9411 40.4478 41.4546C40.9592 41.2773 40.9592 40.554 40.4478 40.3767C39.0442 39.8903 37.9411 38.7872 37.4546 37.3836Z" fill="#D22498" fill-opacity="0.4"/>
<path d="M65.4883 37.3836C65.311 36.8721 64.5877 36.8721 64.4104 37.3836C63.924 38.7872 62.8209 39.8903 61.4173 40.3767C60.9058 40.554 60.9058 41.2773 61.4173 41.4546C62.8209 41.9411 63.924 43.0442 64.4104 44.4478C64.5877 44.9592 65.311 44.9592 65.4883 44.4478C65.9748 43.0442 67.0779 41.9411 68.4814 41.4546C68.9929 41.2773 68.9929 40.554 68.4814 40.3767C67.0779 39.8903 65.9748 38.7872 65.4883 37.3836Z" fill="#D22498" fill-opacity="0.4"/>
<path d="M93.5217 37.3836C93.3445 36.8721 92.6211 36.8721 92.4439 37.3836C91.9574 38.7872 90.8543 39.8903 89.4507 40.3767C88.9393 40.554 88.9393 41.2773 89.4507 41.4546C90.8543 41.9411 91.9574 43.0442 92.4439 44.4478C92.6211 44.9592 93.3445 44.9592 93.5217 44.4478C94.0082 43.0442 95.1113 41.9411 96.5149 41.4546C97.0263 41.2773 97.0263 40.554 96.5149 40.3767C95.1113 39.8903 94.0082 38.7872 93.5217 37.3836Z" fill="#D22498" fill-opacity="0.4"/>
<path d="M121.555 37.3836C121.378 36.8721 120.655 36.8721 120.478 37.3836C119.991 38.7872 118.888 39.8903 117.484 40.3767C116.973 40.554 116.973 41.2773 117.484 41.4546C118.888 41.9411 119.991 43.0442 120.478 44.4478C120.655 44.9592 121.378 44.9592 121.555 44.4478C122.042 43.0442 123.145 41.9411 124.549 41.4546C125.06 41.2773 125.06 40.554 124.549 40.3767C123.145 39.8903 122.042 38.7872 121.555 37.3836Z" fill="#D22498" fill-opacity="0.4"/>
<path d="M149.589 37.3836C149.412 36.8721 148.689 36.8721 148.512 37.3836C148.025 38.7872 146.922 39.8903 145.518 40.3767C145.007 40.554 145.007 41.2773 145.518 41.4546C146.922 41.9411 148.025 43.0442 148.512 44.4478C148.689 44.9592 149.412 44.9592 149.589 44.4478C150.076 43.0442 151.179 41.9411 152.583 41.4546C153.094 41.2773 153.094 40.554 152.583 40.3767C151.179 39.8903 150.076 38.7872 149.589 37.3836Z" fill="#D22498" fill-opacity="0.4"/>
<path d="M177.623 37.3836C177.446 36.8721 176.722 36.8721 176.545 37.3836C176.058 38.7872 174.955 39.8903 173.552 40.3767C173.04 40.554 173.04 41.2773 173.552 41.4546C174.955 41.9411 176.058 43.0442 176.545 44.4478C176.722 44.9592 177.446 44.9592 177.623 44.4478C178.109 43.0442 179.212 41.9411 180.616 41.4546C181.127 41.2773 181.127 40.554 180.616 40.3767C179.212 39.8903 178.109 38.7872 177.623 37.3836Z" fill="#D22498" fill-opacity="0.4"/>
<path d="M37.4546 65.4161C37.2773 64.9046 36.554 64.9046 36.3767 65.4161C35.8903 66.8196 34.7872 67.9227 33.3836 68.4092C32.8721 68.5865 32.8721 69.3098 33.3836 69.4871C34.7872 69.9735 35.8903 71.0766 36.3767 72.4802C36.554 72.9917 37.2773 72.9917 37.4546 72.4802C37.9411 71.0766 39.0442 69.9735 40.4478 69.4871C40.9592 69.3098 40.9592 68.5865 40.4478 68.4092C39.0442 67.9227 37.9411 66.8196 37.4546 65.4161Z" fill="#D22498" fill-opacity="0.4"/>
<path d="M65.4883 65.4161C65.311 64.9046 64.5877 64.9046 64.4104 65.4161C63.924 66.8196 62.8209 67.9227 61.4173 68.4092C60.9058 68.5865 60.9058 69.3098 61.4173 69.4871C62.8209 69.9735 63.924 71.0766 64.4104 72.4802C64.5877 72.9917 65.311 72.9917 65.4883 72.4802C65.9748 71.0766 67.0779 69.9735 68.4814 69.4871C68.9929 69.3098 68.9929 68.5865 68.4814 68.4092C67.0779 67.9227 65.9748 66.8196 65.4883 65.4161Z" fill="#D22498" fill-opacity="0.4"/>
<path d="M93.5217 65.4161C93.3445 64.9046 92.6211 64.9046 92.4439 65.4161C91.9574 66.8196 90.8543 67.9227 89.4507 68.4092C88.9393 68.5865 88.9393 69.3098 89.4507 69.4871C90.8543 69.9735 91.9574 71.0766 92.4439 72.4802C92.6211 72.9917 93.3445 72.9917 93.5217 72.4802C94.0082 71.0766 95.1113 69.9735 96.5149 69.4871C97.0263 69.3098 97.0263 68.5865 96.5149 68.4092C95.1113 67.9227 94.0082 66.8196 93.5217 65.4161Z" fill="#D22498" fill-opacity="0.4"/>
<path d="M121.555 65.4161C121.378 64.9046 120.655 64.9046 120.478 65.4161C119.991 66.8196 118.888 67.9227 117.484 68.4092C116.973 68.5865 116.973 69.3098 117.484 69.4871C118.888 69.9735 119.991 71.0766 120.478 72.4802C120.655 72.9917 121.378 72.9917 121.555 72.4802C122.042 71.0766 123.145 69.9735 124.549 69.4871C125.06 69.3098 125.06 68.5865 124.549 68.4092C123.145 67.9227 122.042 66.8196 121.555 65.4161Z" fill="#D22498" fill-opacity="0.4"/>
<path d="M149.589 65.4161C149.412 64.9046 148.689 64.9046 148.512 65.4161C148.025 66.8196 146.922 67.9227 145.518 68.4092C145.007 68.5865 145.007 69.3098 145.518 69.4871C146.922 69.9735 148.025 71.0766 148.512 72.4802C148.689 72.9917 149.412 72.9917 149.589 72.4802C150.076 71.0766 151.179 69.9735 152.583 69.4871C153.094 69.3098 153.094 68.5865 152.583 68.4092C151.179 67.9227 150.076 66.8196 149.589 65.4161Z" fill="#D22498" fill-opacity="0.4"/>
<path d="M177.623 65.4161C177.446 64.9046 176.722 64.9046 176.545 65.4161C176.058 66.8196 174.955 67.9227 173.552 68.4092C173.04 68.5865 173.04 69.3098 173.552 69.4871C174.955 69.9735 176.058 71.0766 176.545 72.4802C176.722 72.9917 177.446 72.9917 177.623 72.4802C178.109 71.0766 179.212 69.9735 180.616 69.4871C181.127 69.3098 181.127 68.5865 180.616 68.4092C179.212 67.9227 178.109 66.8196 177.623 65.4161Z" fill="#D22498" fill-opacity="0.4"/>
<path d="M37.4546 93.4485C37.2773 92.9371 36.554 92.9371 36.3767 93.4485C35.8903 94.8521 34.7872 95.9552 33.3836 96.4417C32.8721 96.619 32.8721 97.3423 33.3836 97.5195C34.7872 98.006 35.8903 99.1091 36.3767 100.513C36.554 101.024 37.2773 101.024 37.4546 100.513C37.9411 99.1091 39.0442 98.006 40.4478 97.5195C40.9592 97.3423 40.9592 96.619 40.4478 96.4417C39.0442 95.9552 37.9411 94.8521 37.4546 93.4485Z" fill="#D22498" fill-opacity="0.4"/>
<path d="M65.4883 93.4485C65.311 92.9371 64.5877 92.9371 64.4104 93.4485C63.924 94.8521 62.8209 95.9552 61.4173 96.4417C60.9058 96.619 60.9058 97.3423 61.4173 97.5195C62.8209 98.006 63.924 99.1091 64.4104 100.513C64.5877 101.024 65.311 101.024 65.4883 100.513C65.9748 99.1091 67.0779 98.006 68.4814 97.5195C68.9929 97.3423 68.9929 96.619 68.4814 96.4417C67.0779 95.9552 65.9748 94.8521 65.4883 93.4485Z" fill="#D22498" fill-opacity="0.4"/>
<path d="M93.5217 93.4485C93.3445 92.9371 92.6211 92.9371 92.4439 93.4485C91.9574 94.8521 90.8543 95.9552 89.4507 96.4417C88.9393 96.619 88.9393 97.3423 89.4507 97.5195C90.8543 98.006 91.9574 99.1091 92.4439 100.513C92.6211 101.024 93.3445 101.024 93.5217 100.513C94.0082 99.1091 95.1113 98.006 96.5149 97.5195C97.0263 97.3423 97.0263 96.619 96.5149 96.4417C95.1113 95.9552 94.0082 94.8521 93.5217 93.4485Z" fill="#D22498" fill-opacity="0.4"/>
<path d="M121.555 93.4485C121.378 92.9371 120.655 92.9371 120.478 93.4485C119.991 94.8521 118.888 95.9552 117.484 96.4417C116.973 96.619 116.973 97.3423 117.484 97.5195C118.888 98.006 119.991 99.1091 120.478 100.513C120.655 101.024 121.378 101.024 121.555 100.513C122.042 99.1091 123.145 98.006 124.549 97.5195C125.06 97.3423 125.06 96.619 124.549 96.4417C123.145 95.9552 122.042 94.8521 121.555 93.4485Z" fill="#D22498" fill-opacity="0.4"/>
<path d="M149.589 93.4485C149.412 92.9371 148.689 92.9371 148.512 93.4485C148.025 94.8521 146.922 95.9552 145.518 96.4417C145.007 96.619 145.007 97.3423 145.518 97.5195C146.922 98.006 148.025 99.1091 148.512 100.513C148.689 101.024 149.412 101.024 149.589 100.513C150.076 99.1091 151.179 98.006 152.583 97.5195C153.094 97.3423 153.094 96.619 152.583 96.4417C151.179 95.9552 150.076 94.8521 149.589 93.4485Z" fill="#D22498" fill-opacity="0.4"/>
<path d="M177.623 93.4485C177.446 92.9371 176.722 92.9371 176.545 93.4485C176.058 94.8521 174.955 95.9552 173.552 96.4417C173.04 96.619 173.04 97.3423 173.552 97.5195C174.955 98.006 176.058 99.1091 176.545 100.513C176.722 101.024 177.446 101.024 177.623 100.513C178.109 99.1091 179.212 98.006 180.616 97.5195C181.127 97.3423 181.127 96.619 180.616 96.4417C179.212 95.9552 178.109 94.8521 177.623 93.4485Z" fill="#D22498" fill-opacity="0.4"/>
<path d="M37.4546 121.481C37.2773 120.97 36.554 120.97 36.3767 121.481C35.8903 122.885 34.7872 123.988 33.3836 124.474C32.8721 124.651 32.8721 125.375 33.3836 125.552C34.7872 126.038 35.8903 127.142 36.3767 128.545C36.554 129.057 37.2773 129.057 37.4546 128.545C37.9411 127.142 39.0442 126.038 40.4478 125.552C40.9592 125.375 40.9592 124.651 40.4478 124.474C39.0442 123.988 37.9411 122.885 37.4546 121.481Z" fill="#D22498" fill-opacity="0.4"/>
<path d="M65.4883 121.481C65.311 120.97 64.5877 120.97 64.4104 121.481C63.924 122.885 62.8209 123.988 61.4173 124.474C60.9058 124.651 60.9058 125.375 61.4173 125.552C62.8209 126.038 63.924 127.142 64.4104 128.545C64.5877 129.057 65.311 129.057 65.4883 128.545C65.9748 127.142 67.0779 126.038 68.4814 125.552C68.9929 125.375 68.9929 124.651 68.4814 124.474C67.0779 123.988 65.9748 122.885 65.4883 121.481Z" fill="#D22498" fill-opacity="0.4"/>
<path d="M93.5217 121.481C93.3445 120.97 92.6211 120.97 92.4439 121.481C91.9574 122.885 90.8543 123.988 89.4507 124.474C88.9393 124.651 88.9393 125.375 89.4507 125.552C90.8543 126.038 91.9574 127.142 92.4439 128.545C92.6211 129.057 93.3445 129.057 93.5217 128.545C94.0082 127.142 95.1113 126.038 96.5149 125.552C97.0263 125.375 97.0263 124.651 96.5149 124.474C95.1113 123.988 94.0082 122.885 93.5217 121.481Z" fill="#D22498" fill-opacity="0.4"/>
<path d="M121.555 121.481C121.378 120.97 120.655 120.97 120.478 121.481C119.991 122.885 118.888 123.988 117.484 124.474C116.973 124.651 116.973 125.375 117.484 125.552C118.888 126.038 119.991 127.142 120.478 128.545C120.655 129.057 121.378 129.057 121.555 128.545C122.042 127.142 123.145 126.038 124.549 125.552C125.06 125.375 125.06 124.651 124.549 124.474C123.145 123.988 122.042 122.885 121.555 121.481Z" fill="#D22498" fill-opacity="0.4"/>
<path d="M149.589 121.481C149.412 120.97 148.689 120.97 148.512 121.481C148.025 122.885 146.922 123.988 145.518 124.474C145.007 124.651 145.007 125.375 145.518 125.552C146.922 126.038 148.025 127.142 148.512 128.545C148.689 129.057 149.412 129.057 149.589 128.545C150.076 127.142 151.179 126.038 152.583 125.552C153.094 125.375 153.094 124.651 152.583 124.474C151.179 123.988 150.076 122.885 149.589 121.481Z" fill="#D22498" fill-opacity="0.4"/>
<path d="M177.623 121.481C177.446 120.97 176.722 120.97 176.545 121.481C176.058 122.885 174.955 123.988 173.552 124.474C173.04 124.651 173.04 125.375 173.552 125.552C174.955 126.038 176.058 127.142 176.545 128.545C176.722 129.057 177.446 129.057 177.623 128.545C178.109 127.142 179.212 126.038 180.616 125.552C181.127 125.375 181.127 124.651 180.616 124.474C179.212 123.988 178.109 122.885 177.623 121.481Z" fill="#D22498" fill-opacity="0.4"/>
<path d="M37.4546 149.514C37.2773 149.002 36.554 149.002 36.3767 149.514C35.8903 150.917 34.7872 152.02 33.3836 152.507C32.8721 152.684 32.8721 153.407 33.3836 153.585C34.7872 154.071 35.8903 155.174 36.3767 156.578C36.554 157.089 37.2773 157.089 37.4546 156.578C37.9411 155.174 39.0442 154.071 40.4478 153.585C40.9592 153.407 40.9592 152.684 40.4478 152.507C39.0442 152.02 37.9411 150.917 37.4546 149.514Z" fill="#D22498" fill-opacity="0.4"/>
<path d="M65.4883 149.52C65.311 149.008 64.5877 149.008 64.4104 149.52C63.924 150.923 62.8209 152.026 61.4173 152.513C60.9058 152.69 60.9058 153.414 61.4173 153.591C62.8209 154.077 63.924 155.18 64.4104 156.584C64.5877 157.095 65.311 157.095 65.4883 156.584C65.9748 155.18 67.0779 154.077 68.4814 153.591C68.9929 153.414 68.9929 152.69 68.4814 152.513C67.0779 152.026 65.9748 150.923 65.4883 149.52Z" fill="#D22498" fill-opacity="0.4"/>
<path d="M93.5217 149.52C93.3445 149.008 92.6211 149.008 92.4439 149.52C91.9574 150.923 90.8543 152.026 89.4507 152.513C88.9393 152.69 88.9393 153.414 89.4507 153.591C90.8543 154.077 91.9574 155.18 92.4439 156.584C92.6211 157.095 93.3445 157.095 93.5217 156.584C94.0082 155.18 95.1113 154.077 96.5149 153.591C97.0263 153.414 97.0263 152.69 96.5149 152.513C95.1113 152.026 94.0082 150.923 93.5217 149.52Z" fill="#D22498" fill-opacity="0.4"/>
<path d="M121.555 149.52C121.378 149.008 120.655 149.008 120.478 149.52C119.991 150.923 118.888 152.026 117.484 152.513C116.973 152.69 116.973 153.414 117.484 153.591C118.888 154.077 119.991 155.18 120.478 156.584C120.655 157.095 121.378 157.095 121.555 156.584C122.042 155.18 123.145 154.077 124.549 153.591C125.06 153.414 125.06 152.69 124.549 152.513C123.145 152.026 122.042 150.923 121.555 149.52Z" fill="#D22498" fill-opacity="0.4"/>
<path d="M149.589 149.52C149.412 149.008 148.689 149.008 148.512 149.52C148.025 150.923 146.922 152.026 145.518 152.513C145.007 152.69 145.007 153.414 145.518 153.591C146.922 154.077 148.025 155.18 148.512 156.584C148.689 157.095 149.412 157.095 149.589 156.584C150.076 155.18 151.179 154.077 152.583 153.591C153.094 153.414 153.094 152.69 152.583 152.513C151.179 152.026 150.076 150.923 149.589 149.52Z" fill="#D22498" fill-opacity="0.4"/>
<path d="M177.623 149.52C177.446 149.008 176.722 149.008 176.545 149.52C176.058 150.923 174.955 152.026 173.552 152.513C173.04 152.69 173.04 153.414 173.552 153.591C174.955 154.077 176.058 155.18 176.545 156.584C176.722 157.095 177.446 157.095 177.623 156.584C178.109 155.18 179.212 154.077 180.616 153.591C181.127 153.414 181.127 152.69 180.616 152.513C179.212 152.026 178.109 150.923 177.623 149.52Z" fill="#D22498" fill-opacity="0.4"/>
<path d="M37.4546 177.552C37.2773 177.041 36.554 177.041 36.3767 177.552C35.8903 178.956 34.7872 180.059 33.3836 180.545C32.8721 180.723 32.8721 181.446 33.3836 181.623C34.7872 182.11 35.8903 183.213 36.3767 184.616C36.554 185.128 37.2773 185.128 37.4546 184.616C37.9411 183.213 39.0442 182.11 40.4478 181.623C40.9592 181.446 40.9592 180.723 40.4478 180.545C39.0442 180.059 37.9411 178.956 37.4546 177.552Z" fill="#D22498" fill-opacity="0.4"/>
<path d="M65.4883 177.553C65.311 177.041 64.5877 177.041 64.4104 177.553C63.924 178.956 62.8209 180.059 61.4173 180.546C60.9058 180.723 60.9058 181.446 61.4173 181.624C62.8209 182.11 63.924 183.213 64.4104 184.617C64.5877 185.128 65.311 185.128 65.4883 184.617C65.9748 183.213 67.0779 182.11 68.4814 181.624C68.9929 181.446 68.9929 180.723 68.4814 180.546C67.0779 180.059 65.9748 178.956 65.4883 177.553Z" fill="#D22498" fill-opacity="0.4"/>
<path d="M93.5217 177.553C93.3445 177.041 92.6211 177.041 92.4439 177.553C91.9574 178.956 90.8543 180.059 89.4507 180.546C88.9393 180.723 88.9393 181.446 89.4507 181.624C90.8543 182.11 91.9574 183.213 92.4439 184.617C92.6211 185.128 93.3445 185.128 93.5217 184.617C94.0082 183.213 95.1113 182.11 96.5149 181.624C97.0263 181.446 97.0263 180.723 96.5149 180.546C95.1113 180.059 94.0082 178.956 93.5217 177.553Z" fill="#D22498" fill-opacity="0.4"/>
<path d="M121.555 177.553C121.378 177.041 120.655 177.041 120.478 177.553C119.991 178.956 118.888 180.059 117.484 180.546C116.973 180.723 116.973 181.446 117.484 181.624C118.888 182.11 119.991 183.213 120.478 184.617C120.655 185.128 121.378 185.128 121.555 184.617C122.042 183.213 123.145 182.11 124.549 181.624C125.06 181.446 125.06 180.723 124.549 180.546C123.145 180.059 122.042 178.956 121.555 177.553Z" fill="#D22498" fill-opacity="0.4"/>
<path d="M149.589 177.553C149.412 177.041 148.689 177.041 148.512 177.553C148.025 178.956 146.922 180.059 145.518 180.546C145.007 180.723 145.007 181.446 145.518 181.624C146.922 182.11 148.025 183.213 148.512 184.617C148.689 185.128 149.412 185.128 149.589 184.617C150.076 183.213 151.179 182.11 152.583 181.624C153.094 181.446 153.094 180.723 152.583 180.546C151.179 180.059 150.076 178.956 149.589 177.553Z" fill="#D22498" fill-opacity="0.4"/>
<path d="M177.623 177.553C177.446 177.041 176.722 177.041 176.545 177.553C176.058 178.956 174.955 180.059 173.552 180.546C173.04 180.723 173.04 181.446 173.552 181.624C174.955 182.11 176.058 183.213 176.545 184.617C176.722 185.128 177.446 185.128 177.623 184.617C178.109 183.213 179.212 182.11 180.616 181.624C181.127 181.446 181.127 180.723 180.616 180.546C179.212 180.059 178.109 178.956 177.623 177.553Z" fill="#D22498" fill-opacity="0.4"/>
</g>
<defs>
<clipPath id="clip0_81_395">
<rect width="243" height="240" fill="white"/>
</clipPath>
</defs>
</svg>
