<svg width="309" height="60" viewBox="0 0 309 60" fill="none" xmlns="http://www.w3.org/2000/svg">
<path d="M0.600098 54.2965L17.1648 6.33418H32.4495L47.7342 54.2965H33.9554L31.0942 44.8095H17.5413L14.6801 54.2965H0.600098ZM20.4025 34.2683H28.986L24.9954 20.4895H24.6942L20.4025 34.2683Z" fill="url(#paint0_linear_45_3260)"/>
<path d="M54.5148 54.2965V18.0048H66.5619V54.2965H54.5148ZM60.5383 13.3365C58.5305 13.3365 56.8991 12.7091 55.6442 11.4542C54.3893 10.1993 53.7619 8.6432 53.7619 6.78594C53.7619 4.92869 54.3893 3.37261 55.6442 2.11771C56.8991 0.862803 58.5305 0.235352 60.5383 0.235352C62.5964 0.235352 64.2277 0.862803 65.4325 2.11771C66.6874 3.37261 67.3148 4.92869 67.3148 6.78594C67.3148 8.6432 66.6874 10.1993 65.4325 11.4542C64.2277 12.7091 62.5964 13.3365 60.5383 13.3365Z" fill="url(#paint1_linear_45_3260)"/>
<path d="M122.26 59.4918L116.161 53.393V32.913C116.161 30.855 115.609 29.2738 114.505 28.1695C113.4 27.0652 111.794 26.513 109.686 26.513C108.782 26.513 107.929 26.6134 107.126 26.8142C106.323 27.015 105.62 27.291 105.018 27.6424V54.2965H92.9707V21.8448C94.8781 19.9373 97.4632 18.4063 100.726 17.2518C104.039 16.0471 107.628 15.4448 111.493 15.4448C117.065 15.4448 121.231 16.7248 123.992 19.2848C126.803 21.7946 128.208 25.2079 128.208 29.5248V47.7459L131.597 51.5859L122.26 59.4918Z" fill="url(#paint2_linear_45_3260)"/>
<path d="M152.396 55.8024C148.581 55.8024 145.067 55.2001 141.855 53.9954C138.692 52.7906 136.283 51.4855 134.627 50.0801L138.467 42.0236C139.721 42.9773 141.503 43.8808 143.812 44.7342C146.121 45.5875 148.481 46.0142 150.89 46.0142C152.697 46.0142 154.027 45.7381 154.881 45.1859C155.734 44.6338 156.161 43.8808 156.161 42.9271C156.161 42.0738 155.834 41.4463 155.182 41.0448C154.529 40.6432 153.55 40.342 152.245 40.1412L148.631 39.5389C144.365 38.8361 141.077 37.5059 138.768 35.5483C136.459 33.5405 135.304 30.855 135.304 27.4918C135.304 25.3334 135.831 23.3506 136.885 21.5436C137.99 19.7365 139.671 18.2808 141.93 17.1765C144.239 16.0722 147.226 15.5201 150.89 15.5201C154.504 15.5201 157.717 15.9969 160.528 16.9506C163.389 17.8542 165.522 18.8079 166.928 19.8118L163.841 27.8683C163.038 27.3161 161.958 26.8393 160.603 26.4377C159.298 25.9859 157.892 25.6346 156.387 25.3836C154.881 25.1326 153.45 25.0071 152.095 25.0071C148.932 25.0071 147.351 25.7852 147.351 27.3412C147.351 28.0942 147.652 28.7216 148.255 29.2236C148.857 29.6754 149.535 29.9514 150.288 30.0518L154.881 30.8048C159.951 31.6079 163.439 32.9883 165.347 34.9459C167.254 36.9036 168.208 39.3883 168.208 42.4001C168.208 44.7593 167.681 46.9679 166.627 49.0259C165.572 51.0338 163.891 52.6652 161.582 53.9201C159.273 55.175 156.211 55.8024 152.396 55.8024Z" fill="url(#paint3_linear_45_3260)"/>
<path d="M193.948 54.8236C191.036 54.8236 188.451 54.3467 186.192 53.393C183.934 52.4393 182.152 50.9083 180.847 48.8001C179.592 46.6918 178.964 43.9059 178.964 40.4424V25.9859H172.715V17.0259H179.265V6.40947H191.312V17.0259H201.552V26.0612H191.388V40.0659C191.388 41.9734 191.84 43.2785 192.743 43.9812C193.697 44.684 194.826 45.0354 196.131 45.0354C196.934 45.0354 197.813 44.9601 198.767 44.8095C199.77 44.6087 200.549 44.3326 201.101 43.9812L203.134 52.8659C201.879 53.5687 200.423 54.0706 198.767 54.3718C197.16 54.673 195.554 54.8236 193.948 54.8236Z" fill="url(#paint4_linear_45_3260)"/>
<path d="M228.214 54.7483C224.199 54.7483 220.635 53.9452 217.522 52.3389C214.46 50.7326 212.051 48.3985 210.294 45.3365C208.537 42.2746 207.659 38.5852 207.659 34.2683C207.659 28.1946 209.34 23.5263 212.704 20.2636C216.117 16.9506 220.685 15.2942 226.407 15.2942C230.423 15.2942 233.686 16.0722 236.195 17.6283C238.755 19.1342 240.638 21.1671 241.842 23.7271C243.047 26.2871 243.65 29.1232 243.65 32.2354C243.65 33.3397 243.574 34.4942 243.424 35.6989C243.323 36.8534 243.148 38.0079 242.897 39.1624H219.48C219.731 41.7224 220.785 43.4542 222.642 44.3577C224.55 45.2612 226.733 45.713 229.193 45.713C231.251 45.713 233.133 45.4871 234.84 45.0354C236.547 44.5334 237.927 43.8808 238.981 43.0777L242.219 50.6071C240.964 51.6612 239.082 52.615 236.572 53.4683C234.112 54.3216 231.326 54.7483 228.214 54.7483ZM219.48 31.5577H233.108C233.108 29.5499 232.531 27.8683 231.377 26.513C230.272 25.1075 228.591 24.4048 226.332 24.4048C224.173 24.4048 222.492 25.0573 221.287 26.3624C220.082 27.6675 219.48 29.3993 219.48 31.5577Z" fill="url(#paint5_linear_45_3260)"/>
<path d="M250.397 54.2965V18.0048H262.444V54.2965H250.397ZM256.421 13.3365C254.413 13.3365 252.781 12.7091 251.527 11.4542C250.272 10.1993 249.644 8.6432 249.644 6.78594C249.644 4.92869 250.272 3.37261 251.527 2.11771C252.781 0.862803 254.413 0.235352 256.421 0.235352C258.479 0.235352 260.11 0.862803 261.315 2.11771C262.57 3.37261 263.197 4.92869 263.197 6.78594C263.197 8.6432 262.57 10.1993 261.315 11.4542C260.11 12.7091 258.479 13.3365 256.421 13.3365Z" fill="url(#paint6_linear_45_3260)"/>
<path d="M299.245 59.4918L293.147 53.393V32.913C293.147 30.855 292.594 29.2738 291.49 28.1695C290.386 27.0652 288.78 26.513 286.671 26.513C285.768 26.513 284.914 26.6134 284.111 26.8142C283.308 27.015 282.605 27.291 282.003 27.6424V54.2965H269.956V21.8448C271.863 19.9373 274.449 18.4063 277.711 17.2518C281.024 16.0471 284.613 15.4448 288.478 15.4448C294.05 15.4448 298.216 16.7248 300.977 19.2848C303.788 21.7946 305.194 25.2079 305.194 29.5248V47.7459L308.582 51.5859L299.245 59.4918Z" fill="url(#paint7_linear_45_3260)"/>
<path d="M79.7208 54.0048C77.5624 54.0048 75.8306 53.3523 74.5255 52.0472C73.2204 50.6919 72.5679 49.0354 72.5679 47.0778C72.5679 45.0699 73.2204 43.3884 74.5255 42.0331C75.8306 40.6778 77.5624 40.0001 79.7208 40.0001C81.8792 40.0001 83.611 40.6778 84.9161 42.0331C86.2714 43.3884 86.949 45.0699 86.949 47.0778C86.949 49.0354 86.2714 50.6919 84.9161 52.0472C83.611 53.3523 81.8792 54.0048 79.7208 54.0048Z" fill="#FFD063"/>
<defs>
<linearGradient id="paint0_linear_45_3260" x1="277.671" y1="71.5319" x2="231.905" y2="-71.9016" gradientUnits="userSpaceOnUse">
<stop stop-color="#FFF8F8"/>
<stop offset="1" stop-color="#E5E5E5"/>
</linearGradient>
<linearGradient id="paint1_linear_45_3260" x1="277.671" y1="71.5319" x2="231.905" y2="-71.9016" gradientUnits="userSpaceOnUse">
<stop stop-color="#FFF8F8"/>
<stop offset="1" stop-color="#E5E5E5"/>
</linearGradient>
<linearGradient id="paint2_linear_45_3260" x1="277.671" y1="71.5319" x2="231.905" y2="-71.9016" gradientUnits="userSpaceOnUse">
<stop stop-color="#FFF8F8"/>
<stop offset="1" stop-color="#E5E5E5"/>
</linearGradient>
<linearGradient id="paint3_linear_45_3260" x1="277.671" y1="71.5319" x2="231.905" y2="-71.9016" gradientUnits="userSpaceOnUse">
<stop stop-color="#FFF8F8"/>
<stop offset="1" stop-color="#E5E5E5"/>
</linearGradient>
<linearGradient id="paint4_linear_45_3260" x1="277.671" y1="71.5319" x2="231.905" y2="-71.9016" gradientUnits="userSpaceOnUse">
<stop stop-color="#FFF8F8"/>
<stop offset="1" stop-color="#E5E5E5"/>
</linearGradient>
<linearGradient id="paint5_linear_45_3260" x1="277.671" y1="71.5319" x2="231.905" y2="-71.9016" gradientUnits="userSpaceOnUse">
<stop stop-color="#FFF8F8"/>
<stop offset="1" stop-color="#E5E5E5"/>
</linearGradient>
<linearGradient id="paint6_linear_45_3260" x1="277.671" y1="71.5319" x2="231.905" y2="-71.9016" gradientUnits="userSpaceOnUse">
<stop stop-color="#FFF8F8"/>
<stop offset="1" stop-color="#E5E5E5"/>
</linearGradient>
<linearGradient id="paint7_linear_45_3260" x1="277.671" y1="71.5319" x2="231.905" y2="-71.9016" gradientUnits="userSpaceOnUse">
<stop stop-color="#FFF8F8"/>
<stop offset="1" stop-color="#E5E5E5"/>
</linearGradient>
</defs>
</svg>
