<svg width="443" height="118" viewBox="0 0 443 118" fill="none" xmlns="http://www.w3.org/2000/svg">
<path d="M213.662 82.6518C211.503 82.6518 209.772 81.9993 208.466 80.6942C207.161 79.3389 206.509 77.6824 206.509 75.7247C206.509 73.7169 207.161 72.0353 208.466 70.68C209.772 69.3247 211.503 68.6471 213.662 68.6471C215.82 68.6471 217.552 69.3247 218.857 70.68C220.212 72.0353 220.89 73.7169 220.89 75.7247C220.89 77.6824 220.212 79.3389 218.857 80.6942C217.552 81.9993 215.82 82.6518 213.662 82.6518Z" fill="#FFD063"/>
<path d="M134.541 82.9435L151.106 34.9811H166.391L181.675 82.9435H167.897L165.035 73.4564H151.482L148.621 82.9435H134.541ZM154.344 62.9153H162.927L158.937 49.1364H158.635L154.344 62.9153Z" fill="url(#paint0_linear_45_3247)"/>
<path d="M188.456 82.9435V46.6517H200.503V82.9435H188.456ZM194.479 41.9835C192.472 41.9835 190.84 41.3561 189.585 40.1012C188.33 38.8462 187.703 37.2902 187.703 35.4329C187.703 33.5757 188.33 32.0196 189.585 30.7647C190.84 29.5098 192.472 28.8823 194.479 28.8823C196.538 28.8823 198.169 29.5098 199.374 30.7647C200.629 32.0196 201.256 33.5757 201.256 35.4329C201.256 37.2902 200.629 38.8462 199.374 40.1012C198.169 41.3561 196.538 41.9835 194.479 41.9835Z" fill="url(#paint1_linear_45_3247)"/>
<path d="M256.201 88.1388L250.102 82.04V61.56C250.102 59.5019 249.55 57.9208 248.446 56.8164C247.342 55.7121 245.735 55.16 243.627 55.16C242.724 55.16 241.87 55.2604 241.067 55.4611C240.264 55.6619 239.561 55.938 238.959 56.2894V82.9435H226.912V50.4917C228.819 48.5843 231.404 47.0533 234.667 45.8988C237.98 44.6941 241.569 44.0917 245.434 44.0917C251.006 44.0917 255.172 45.3717 257.933 47.9317C260.744 50.4415 262.15 53.8549 262.15 58.1717V76.3929L265.538 80.2329L256.201 88.1388Z" fill="url(#paint2_linear_45_3247)"/>
<path d="M286.337 84.4494C282.522 84.4494 279.009 83.847 275.796 82.6423C272.634 81.4376 270.224 80.1325 268.568 78.727L272.408 70.6706C273.663 71.6243 275.445 72.5278 277.754 73.3811C280.063 74.2345 282.422 74.6611 284.831 74.6611C286.638 74.6611 287.969 74.3851 288.822 73.8329C289.675 73.2808 290.102 72.5278 290.102 71.5741C290.102 70.7208 289.776 70.0933 289.123 69.6917C288.47 69.2902 287.492 68.989 286.187 68.7882L282.572 68.1859C278.306 67.4831 275.018 66.1529 272.709 64.1953C270.4 62.1874 269.245 59.5019 269.245 56.1388C269.245 53.9804 269.772 51.9976 270.827 50.1906C271.931 48.3835 273.612 46.9278 275.871 45.8235C278.18 44.7192 281.167 44.167 284.831 44.167C288.445 44.167 291.658 44.6439 294.469 45.5976C297.33 46.5012 299.463 47.4549 300.869 48.4588L297.782 56.5153C296.979 55.9631 295.9 55.4862 294.544 55.0847C293.239 54.6329 291.834 54.2815 290.328 54.0306C288.822 53.7796 287.391 53.6541 286.036 53.6541C282.874 53.6541 281.292 54.4321 281.292 55.9882C281.292 56.7411 281.594 57.3686 282.196 57.8706C282.798 58.3223 283.476 58.5984 284.229 58.6988L288.822 59.4517C293.892 60.2549 297.38 61.6353 299.288 63.5929C301.195 65.5506 302.149 68.0353 302.149 71.047C302.149 73.4062 301.622 75.6149 300.568 77.6729C299.514 79.6808 297.832 81.3121 295.523 82.567C293.214 83.8219 290.152 84.4494 286.337 84.4494Z" fill="url(#paint3_linear_45_3247)"/>
<path d="M327.889 83.4706C324.978 83.4706 322.392 82.9937 320.134 82.04C317.875 81.0862 316.093 79.5553 314.788 77.447C313.533 75.3388 312.905 72.5529 312.905 69.0894V54.6329H306.656V45.6729H313.207V35.0564H325.254V45.6729H335.494V54.7082H325.329V68.7129C325.329 70.6204 325.781 71.9255 326.684 72.6282C327.638 73.331 328.767 73.6823 330.072 73.6823C330.876 73.6823 331.754 73.607 332.708 73.4564C333.712 73.2557 334.49 72.9796 335.042 72.6282L337.075 81.5129C335.82 82.2157 334.364 82.7176 332.708 83.0188C331.101 83.32 329.495 83.4706 327.889 83.4706Z" fill="url(#paint4_linear_45_3247)"/>
<path d="M362.155 83.3953C358.14 83.3953 354.576 82.5921 351.464 80.9859C348.402 79.3796 345.992 77.0455 344.235 73.9835C342.479 70.9215 341.6 67.2321 341.6 62.9153C341.6 56.8415 343.282 52.1733 346.645 48.9106C350.058 45.5976 354.626 43.9412 360.348 43.9412C364.364 43.9412 367.627 44.7192 370.137 46.2753C372.697 47.7811 374.579 49.8141 375.784 52.3741C376.988 54.9341 377.591 57.7702 377.591 60.8823C377.591 61.9866 377.515 63.1411 377.365 64.3459C377.264 65.5004 377.089 66.6549 376.838 67.8094H353.421C353.672 70.3694 354.726 72.1012 356.584 73.0047C358.491 73.9082 360.675 74.36 363.134 74.36C365.192 74.36 367.075 74.1341 368.781 73.6823C370.488 73.1804 371.868 72.5278 372.922 71.7247L376.16 79.2541C374.905 80.3082 373.023 81.2619 370.513 82.1153C368.053 82.9686 365.268 83.3953 362.155 83.3953ZM353.421 60.2047H367.05C367.05 58.1968 366.472 56.5153 365.318 55.16C364.213 53.7545 362.532 53.0517 360.273 53.0517C358.115 53.0517 356.433 53.7043 355.228 55.0094C354.024 56.3145 353.421 58.0462 353.421 60.2047Z" fill="url(#paint5_linear_45_3247)"/>
<path d="M384.338 82.9435V46.6517H396.385V82.9435H384.338ZM390.362 41.9835C388.354 41.9835 386.723 41.3561 385.468 40.1012C384.213 38.8462 383.585 37.2902 383.585 35.4329C383.585 33.5757 384.213 32.0196 385.468 30.7647C386.723 29.5098 388.354 28.8823 390.362 28.8823C392.42 28.8823 394.051 29.5098 395.256 30.7647C396.511 32.0196 397.138 33.5757 397.138 35.4329C397.138 37.2902 396.511 38.8462 395.256 40.1012C394.051 41.3561 392.42 41.9835 390.362 41.9835Z" fill="url(#paint6_linear_45_3247)"/>
<path d="M433.187 88.1388L427.088 82.04V61.56C427.088 59.5019 426.536 57.9208 425.431 56.8164C424.327 55.7121 422.721 55.16 420.612 55.16C419.709 55.16 418.856 55.2604 418.052 55.4611C417.249 55.6619 416.547 55.938 415.944 56.2894V82.9435H403.897V50.4917C405.805 48.5843 408.39 47.0533 411.652 45.8988C414.965 44.6941 418.554 44.0917 422.42 44.0917C427.991 44.0917 432.158 45.3717 434.918 47.9317C437.729 50.4415 439.135 53.8549 439.135 58.1717V76.3929L442.523 80.2329L433.187 88.1388Z" fill="url(#paint7_linear_45_3247)"/>
<path d="M112.149 22.9694C135.312 54.751 32.3023 126.932 9.26298 98.3833C-15.516 67.6791 88.9862 -8.81216 112.149 22.9694Z" stroke="#D2D2D2" stroke-width="4.30936"/>
<path d="M54.279 4.12672C55.887 -0.512792 62.4484 -0.512776 64.0564 4.12674L69.9008 20.9888C74.3137 33.7211 84.3202 43.7276 97.0525 48.1406L113.915 53.9849C118.554 55.5929 118.554 62.1543 113.915 63.7624L97.0525 69.6067C84.3202 74.0197 74.3137 84.0261 69.9008 96.7584L64.0564 113.621C62.4484 118.26 55.887 118.26 54.279 113.621L48.4346 96.7584C44.0216 84.0261 34.0152 74.0197 21.2829 69.6067L4.42079 63.7624C-0.218725 62.1543 -0.218709 55.5929 4.42081 53.9849L21.2829 48.1405C34.0152 43.7276 44.0217 33.7211 48.4346 20.9888L54.279 4.12672Z" fill="url(#paint8_linear_45_3247)"/>
<path d="M19.5879 32.4246C19.3798 31.824 18.5303 31.824 18.3222 32.4246C17.7509 34.0729 16.4555 35.3683 14.8072 35.9396C14.2065 36.1478 14.2065 36.9972 14.8072 37.2054C16.4555 37.7767 17.7509 39.0721 18.3222 40.7204C18.5303 41.321 19.3798 41.321 19.5879 40.7204C20.1592 39.0721 21.4547 37.7767 23.103 37.2054C23.7036 36.9972 23.7036 36.1478 23.103 35.9396C21.4547 35.3683 20.1592 34.0729 19.5879 32.4246Z" fill="#D22498"/>
<circle cx="95.709" cy="68.1616" r="8.08006" fill="#D2D2D2"/>
<path d="M10.7905 96.6964C10.0432 95.7704 8.68664 95.6255 7.76058 96.3728C6.83453 97.1202 6.68966 98.4767 7.437 99.4028L10.7905 96.6964ZM110.259 23.9048C115.237 30.7358 113.74 40.114 107.11 50.6977C100.547 61.1731 89.3557 72.0909 76.6272 81.2152C63.9031 90.3364 49.8314 97.5302 37.6261 100.694C25.2343 103.905 15.6885 102.766 10.7905 96.6964L7.437 99.4028C14.0587 107.608 26.0288 108.151 38.7073 104.865C51.5723 101.531 66.1251 94.0458 79.1379 84.7177C92.1464 75.3926 103.805 64.0904 110.762 52.9855C117.651 41.9888 120.344 30.4263 113.741 21.3666L110.259 23.9048Z" fill="#D2D2D2"/>
<circle cx="9.1768" cy="73.9813" r="4.30936" fill="#D2D2D2"/>
<defs>
<linearGradient id="paint0_linear_45_3247" x1="411.612" y1="100.179" x2="365.846" y2="-43.2547" gradientUnits="userSpaceOnUse">
<stop stop-color="#5E5E5E"/>
<stop offset="1" stop-color="#3E3E3E"/>
</linearGradient>
<linearGradient id="paint1_linear_45_3247" x1="411.612" y1="100.179" x2="365.846" y2="-43.2547" gradientUnits="userSpaceOnUse">
<stop stop-color="#5E5E5E"/>
<stop offset="1" stop-color="#3E3E3E"/>
</linearGradient>
<linearGradient id="paint2_linear_45_3247" x1="411.612" y1="100.179" x2="365.846" y2="-43.2547" gradientUnits="userSpaceOnUse">
<stop stop-color="#5E5E5E"/>
<stop offset="1" stop-color="#3E3E3E"/>
</linearGradient>
<linearGradient id="paint3_linear_45_3247" x1="411.612" y1="100.179" x2="365.846" y2="-43.2547" gradientUnits="userSpaceOnUse">
<stop stop-color="#5E5E5E"/>
<stop offset="1" stop-color="#3E3E3E"/>
</linearGradient>
<linearGradient id="paint4_linear_45_3247" x1="411.612" y1="100.179" x2="365.846" y2="-43.2547" gradientUnits="userSpaceOnUse">
<stop stop-color="#5E5E5E"/>
<stop offset="1" stop-color="#3E3E3E"/>
</linearGradient>
<linearGradient id="paint5_linear_45_3247" x1="411.612" y1="100.179" x2="365.846" y2="-43.2547" gradientUnits="userSpaceOnUse">
<stop stop-color="#5E5E5E"/>
<stop offset="1" stop-color="#3E3E3E"/>
</linearGradient>
<linearGradient id="paint6_linear_45_3247" x1="411.612" y1="100.179" x2="365.846" y2="-43.2547" gradientUnits="userSpaceOnUse">
<stop stop-color="#5E5E5E"/>
<stop offset="1" stop-color="#3E3E3E"/>
</linearGradient>
<linearGradient id="paint7_linear_45_3247" x1="411.612" y1="100.179" x2="365.846" y2="-43.2547" gradientUnits="userSpaceOnUse">
<stop stop-color="#5E5E5E"/>
<stop offset="1" stop-color="#3E3E3E"/>
</linearGradient>
<linearGradient id="paint8_linear_45_3247" x1="105.167" y1="103.708" x2="18.4091" y2="11.7101" gradientUnits="userSpaceOnUse">
<stop stop-color="#5E5E5E"/>
<stop offset="1" stop-color="#3E3E3E"/>
</linearGradient>
</defs>
</svg>
